# xmcd CD database file
#
# Track frame offsets:
#	150
#	19433
#	34142
#	40199
#	46270
#	67231
#	85628
#	88440
#	114825
#	123019
#	137961
#	143042
#	172852
#
# Disc length: 2434 seconds
#
# Revision: 0
# Processed by: cddbd v1.5PL3 Copyright (c) Steve Scherf et al.
# Submitted via: CDex 1.51
#
DISCID=ae09800d
DTITLE=Bill Horist - Lyric/ Suite
DYEAR=2004
DGENRE=New Age
TTITLE0=Overture
TTITLE1=Scissors
TTITLE2=Crawl Back
TTITLE3=Alphabet Dance
TTITLE4=Vortex
TTITLE5=Dice Dance
TTITLE6=Cadence
TTITLE7=Gesture
TTITLE8=Doubt
TTITLE9=Destruction
TTITLE10=Nil by Hand
TTITLE11=Entropy
TTITLE12=Vortex Reprise
EXTD=YEAR: 2004
EXTT0=
EXTT1=
EXTT2=
EXTT3=
EXTT4=
EXTT5=
EXTT6=
EXTT7=
EXTT8=
EXTT9=
EXTT10=
EXTT11=
EXTT12=
PLAYORDER=
